<svg xmlns="http://www.w3.org/2000/svg" width="113.851" height="37.72" viewBox="0 0 113.851 37.72"><g transform="translate(0.02 -2)"><path d="M112.37,27.28a18.36,18.36,0,0,0-.6-14.3L106.55,2,94.41,3A18.33,18.33,0,0,0,81.73,9.58l-2.81.13a1.48,1.48,0,0,0-1.25,2.17l1.26,2.44a18.27,18.27,0,0,0,.62,15l5.19,10.4L96.35,39a18.25,18.25,0,0,0,13.31-7l2.75-.12a1.48,1.48,0,0,0,1.25-2.17Z" fill="#fff"/><path d="M102.42,24.72a4.39,4.39,0,0,0,.27-4.13l1.12-1.94-2-1.12a4.67,4.67,0,0,0-5.23-4.05,4.5,4.5,0,0,0-1.21.32l-2-1.12-1.12,1.94a4.69,4.69,0,0,0-4,5.26,4.49,4.49,0,0,0,.32,1.18l-1.13,2,1.95,1.12a4.69,4.69,0,0,0,5.27,4,4.24,4.24,0,0,0,1.16-.31l2,1.13L99,27a4.39,4.39,0,0,0,3.42-2.28Z" fill="#10b990"/><path d="M88.41,33.37l-.2-.37c-3.28-6.19-6.48-11.81-2.91-18l.08-.13L79.1,11.26l1.56,3A16.7,16.7,0,0,0,81,28.63l4.73,9.48,2.73-4.74Z" fill="#234d69"/><path d="M105.94,26.76a.83.83,0,0,1-.07.13,11.39,11.39,0,0,1-7.4,5.51,45.211,45.211,0,0,1-9.63,1h-.42l-2.74,4.73,10.57-.64a16.73,16.73,0,0,0,12.6-6.94l3.37-.15Z" fill="#173f58"/><path d="M101.46,10.78a11.8,11.8,0,0,1,4.48,16l6.28,3.62-1.57-3a16.76,16.76,0,0,0-.3-13.71l-4.75-10-4.14,7.17Z" fill="#d65357"/><path d="M101.46,10.78h0l4.14-7.17-11.07.9a16.76,16.76,0,0,0-12,6.6l-3.4.15,6.27,3.63A11.81,11.81,0,0,1,101.46,10.78Z" fill="#eb5e60"/><rect width="0.91" height="0.92" transform="translate(3.61 37.747) rotate(-44.77)" fill="#234d69"/><path d="M7.41,32.56a6.7,6.7,0,0,1,.16,1.18,1.7,1.7,0,0,1-.1.59.87.87,0,0,1-.31.4,1.27,1.27,0,0,1-.38.2,2.55,2.55,0,0,1-.54.15,5.81,5.81,0,0,1-.68.1,4.105,4.105,0,0,0-.83.06h-1a4.55,4.55,0,0,1-2.32-.47,1.56,1.56,0,0,1-.8-1.42,2.51,2.51,0,0,1,.14-.81L.2,32.36A3.16,3.16,0,0,0,0,33.52a2,2,0,0,0,1,1.8,5.5,5.5,0,0,0,2.9.6h0a7,7,0,0,0,3.65-.64,1.82,1.82,0,0,0,.66-1.62A4.36,4.36,0,0,0,8,32.42Z" fill="#234d69"/><rect width="0.91" height="0.92" transform="translate(10.723 37.744) rotate(-45)" fill="#234d69"/><rect width="0.91" height="0.92" transform="translate(9.424 37.746) rotate(-44.77)" fill="#234d69"/><path d="M10.64,35.92h-.17a5.789,5.789,0,0,0,.72,0,3.5,3.5,0,0,0,.56-.13,1.2,1.2,0,0,0,.39-.2,2,2,0,0,0,.68-1.72,5.16,5.16,0,0,0-.21-1.4l-.56.14a5.54,5.54,0,0,1,.16,1.28,1.28,1.28,0,0,1-.52,1.23,2.7,2.7,0,0,1-1.22.19h.22a1,1,0,0,1-.89-.39,1.69,1.69,0,0,1-.3-1.09v-4L8.9,30v3.8a2.49,2.49,0,0,0,.43,1.61,1.65,1.65,0,0,0,1.3.51Z" fill="#234d69"/><rect width="0.91" height="0.92" transform="translate(18.084 37.742) rotate(-45)" fill="#234d69"/><rect width="0.91" height="0.92" transform="matrix(0.707, -0.707, 0.707, 0.707, 16.734, 37.753)" fill="#234d69"/><path d="M34.08,34.41c.28-.8.7-1.19,1.26-1.19a1,1,0,0,1,.59.17,1.14,1.14,0,0,1,.39.5,1.49,1.49,0,0,1,.09.3,2.069,2.069,0,0,1,0,.35.84.84,0,0,1-.24.65.9.9,0,0,1-.65.23,2,2,0,0,1-1.44-.85L34,34.5Zm2.48-1.31a1.8,1.8,0,0,0-.19-.2l-.22-.16-.25-.11a1.27,1.27,0,0,0-.28-.06,1.53,1.53,0,0,0-.3,0c-.69,0-1.24.49-1.67,1.44a3.62,3.62,0,0,1-.42.74,1.25,1.25,0,0,1-1,.55h-.09a1,1,0,0,1-.79-.34,1.67,1.67,0,0,1-.34-1L31,33.14l-.56.06v.87a1.5,1.5,0,0,1-.22.88.75.75,0,0,1-.67.32.91.91,0,0,1-.7-.25,1.1,1.1,0,0,1-.29-.73l-.08-1-.54.06V34a1.82,1.82,0,0,1,0,.4,1.18,1.18,0,0,1-.21.49.9.9,0,0,1-.37.3,1.22,1.22,0,0,1-.53.1,1,1,0,0,1-1.07-1l-.07-1-.55.06v.17a4.6,4.6,0,0,1,0,.5,2.8,2.8,0,0,1,0,.4,1,1,0,0,1-.46.67,1.72,1.72,0,0,1-.94.22H20.45a1,1,0,0,1-.79-.28,1.18,1.18,0,0,1-.33-.81l-.07-1-.56.06v.28a4.179,4.179,0,0,1,0,.51,2.32,2.32,0,0,1,0,.46c-.1.55-.6.83-1.5.83h-.58a1.18,1.18,0,0,1-.5-.11,1.07,1.07,0,0,1-.39-.31,1.57,1.57,0,0,1-.25-.5l-.28-.87-.56.21a6.82,6.82,0,0,1,.27.84,3.2,3.2,0,0,1,.09.75,2.47,2.47,0,0,1-.69,1.78,3.59,3.59,0,0,1-1.39.8h0l.29.52h0a3.06,3.06,0,0,0,2.34-2.6v-.32a1,1,0,0,0,.66.43,2.22,2.22,0,0,0,.37,0h.61a2.07,2.07,0,0,0,1.83-.83l.13.23a1.31,1.31,0,0,0,1.19.6h3.38a1.78,1.78,0,0,0,1.72-.84,1.36,1.36,0,0,0,1.37.84,1.72,1.72,0,0,0,1.47-.79,1.28,1.28,0,0,0,1.25.79A1.42,1.42,0,0,0,30.89,35a1.23,1.23,0,0,0,1.22.88h.2a1.8,1.8,0,0,0,1.32-.69l.12-.14.12.13A2.35,2.35,0,0,0,35.6,36a1.35,1.35,0,0,0,1.1-.45,1.75,1.75,0,0,0,.3-1.09,2.16,2.16,0,0,0-.45-1.36Z" fill="#234d69"/><path d="M40.34,35.93h1.01l-.06.23q-.4,1.52-2.61,2l.21.54a4,4,0,0,0,2.25-1.15,3.29,3.29,0,0,0,.74-2.23,4.73,4.73,0,0,0-.3-1.66,2.26,2.26,0,0,0-.25-.49A1.47,1.47,0,0,0,41,32.7a2,2,0,0,0-.38-.2,1.76,1.76,0,0,0-.46-.06,1.45,1.45,0,0,0-1.35.94,2.84,2.84,0,0,0-.19.56,2.78,2.78,0,0,0-.06.58A1.28,1.28,0,0,0,39,35.59a2,2,0,0,0,1.34.34Zm-1.09-2.08a1.87,1.87,0,0,1,.2-.4.91.91,0,0,1,.3-.25.78.78,0,0,1,.37-.09c.7,0,1.09.63,1.18,1.9v.13h-.11a3,3,0,0,1-.85.15,1.57,1.57,0,0,1-.87-.22.73.73,0,0,1-.32-.66,2,2,0,0,1,.1-.59Z" fill="#234d69"/><rect width="0.88" height="0.89" transform="translate(55.795 31.127) rotate(-45)" fill="#234d69"/><path d="M55.66,31.14,55,30.51l-.63.62.63.63Z" fill="#234d69"/><path d="M56.35,29.89l-.63-.64-.63.63.64.63Z" fill="#234d69"/><rect width="0.91" height="0.92" transform="translate(62.655 29.715) rotate(-45)" fill="#234d69"/><rect width="0.91" height="0.92" transform="translate(61.293 29.717) rotate(-45)" fill="#234d69"/><path d="M67.66,32.43l-.57.14a5,5,0,0,1,.13.67,6,6,0,0,1,0,.61,1.32,1.32,0,0,1-.53,1.23,1.88,1.88,0,0,1-1,.19h-.48a4.63,4.63,0,0,1-1.48-.18l-.26-.1.22-.17a1.89,1.89,0,0,0,.78-1.49,1.84,1.84,0,0,0-1-1.63l-.19-.1-.22-.05a1,1,0,0,0-.25,0,1.23,1.23,0,0,0-.71.23,1.89,1.89,0,0,0-1,1.51,1.82,1.82,0,0,0,.2.83,2.25,2.25,0,0,0,.58.72l.21.17-.24.1a5.44,5.44,0,0,1-1.7.18H60a.93.93,0,0,1-.78-.34,1.79,1.79,0,0,1-.35-1l-.06-.83-.56.06v.87a1.5,1.5,0,0,1-.22.88.74.74,0,0,1-.67.32.92.92,0,0,1-.7-.25,1.13,1.13,0,0,1-.29-.72l-.07-1-.55.06V34a1.76,1.76,0,0,1,0,.4,1.08,1.08,0,0,1-.21.49.93.93,0,0,1-.37.31,1.39,1.39,0,0,1-.53.1,1.13,1.13,0,0,1-.76-.26,1,1,0,0,1-.31-.73l-.07-1L53,33.3v.17a4.46,4.46,0,0,1,0,.5,2.691,2.691,0,0,1,0,.4,1,1,0,0,1-.46.67,1.82,1.82,0,0,1-.94.23H48.14a1.13,1.13,0,0,1-.77-.26,1.15,1.15,0,0,1-.37-.74l-.41-2.94-.54.12v.22h-.12c-1.74.53-2.61,1.28-2.61,2.23a1.2,1.2,0,0,0,.16.65,1.64,1.64,0,0,0,1.5.69,1.8,1.8,0,0,0,.69-.13,2.07,2.07,0,0,0,.62-.38l.2-.18.06.26a1.37,1.37,0,0,0,.26.59,1.14,1.14,0,0,0,.51.36,2.34,2.34,0,0,0,.74.12h3.49a1.8,1.8,0,0,0,1.72-.84,1.38,1.38,0,0,0,1.37.84,1.75,1.75,0,0,0,1.47-.79,1.3,1.3,0,0,0,1.25.79,1.42,1.42,0,0,0,1.32-.9,1.23,1.23,0,0,0,1.22.89h.29a4.15,4.15,0,0,0,2.52-.65l.1-.07.09.07a3.89,3.89,0,0,0,2.36.65h.48a3.23,3.23,0,0,0,.82-.1,1.69,1.69,0,0,0,.59-.28,2,2,0,0,0,.68-1.72A5,5,0,0,0,67.66,32.43Zm-21.37,1.5a1,1,0,0,1-.42.48,1.46,1.46,0,0,1-.44.2,1.37,1.37,0,0,1-.45.07,1.4,1.4,0,0,1-.41,0,.94.94,0,0,1-.32-.15.71.71,0,0,1-.2-.25.84.84,0,0,1-.07-.35,1.08,1.08,0,0,1,.51-.85,5.67,5.67,0,0,1,1.5-.74h0l.18-.06v.33l.11.7a1.28,1.28,0,0,1-.06.67Zm16.81.64a.48.48,0,0,1-.24.07.59.59,0,0,1-.33-.13,3.23,3.23,0,0,1-.37-.37,1.56,1.56,0,0,1-.2-.27,1.11,1.11,0,0,1-.13-.27,1.28,1.28,0,0,1,0-.27,1,1,0,0,1,.37-.73,2.25,2.25,0,0,1,.37-.31.58.58,0,0,1,.32-.1.88.88,0,0,1,.57.25,1.54,1.54,0,0,1,.29.28.92.92,0,0,1,.18.3.7.7,0,0,1,.07.31,1.24,1.24,0,0,1-.38.81l-.24.27a1.19,1.19,0,0,1-.23.16Z" fill="#234d69"/><rect width="0.91" height="0.92" transform="matrix(0.707, -0.707, 0.707, 0.707, 65.707, 30.586)" fill="#234d69"/><path d="M9,12.72l2.22-2.22L9,8.15l-.19.19-2,2Z" fill="#234d69"/><path d="M16.7,9.29l-.49.16-2.36.76-.57.19.25.52a11.7,11.7,0,0,1,.67,1.49,10.91,10.91,0,0,1,.4,1.49,10.42,10.42,0,0,1,.13,1.47,5.08,5.08,0,0,1-1.36,3.88A6,6,0,0,1,9.18,20.5,11.78,11.78,0,0,1,8,20.44a9.51,9.51,0,0,1-1.07-.16A5.76,5.76,0,0,1,6,20a4.32,4.32,0,0,1-.77-.4,4.23,4.23,0,0,1-.61-.51,3.74,3.74,0,0,1-.48-.63,3.35,3.35,0,0,1-.33-.75,5.11,5.11,0,0,1-.2-.86,6.37,6.37,0,0,1-.07-1,11.5,11.5,0,0,1,1-4.4L4.66,11l-.49-.19L2,10l-.5-.2-.2.47A13.66,13.66,0,0,0,0,15.89a7.29,7.29,0,0,0,2.3,5.87q2.32,2,6.76,2a12.56,12.56,0,0,0,3.56-.45,8,8,0,0,0,2.76-1.38,6.87,6.87,0,0,0,1.9-2.28A8.25,8.25,0,0,0,18,17.79a9.31,9.31,0,0,0,.23-2,15.24,15.24,0,0,0-1.33-6Z" fill="#234d69"/><path d="M51,8.24l.15.15.13-.15L53,6.44l.15-.13L53,6.16l-1.8-1.8-.15-.15-.15.15L49.16,6.15,49,6.3l.15.15Z" fill="#234d69"/><path d="M48.93,11.64l.15.15.14-.15L51,9.85l.07-.06.05-.06.06.06.05.05,1.8,1.8.15.15.14-.15,1.8-1.79.14-.15-.14-.14-1.8-1.8-.15-.15L53,7.76l-1.8,1.8-.07.06h-.05L51,9.56l-1.8-1.8-.15-.15-.13.15-1.8,1.8L47,9.69l.15.15Z" fill="#234d69"/><path d="M62.24,10.69l.19.19.19-.19,1.85-1.84.18-.19-.18-.19L62.61,6.61l-.19-.19-.19.19L60.39,8.46l-.19.19.19.19Z" fill="#234d69"/><path d="M67.3,12.49,67.14,12l-.45.13-2.07.51-.49.12.13.49c.09.4.17.78.24,1.16s.12.73.15,1.08,0,.67,0,1c0,1.15-.27,1.88-.82,2.2a2.29,2.29,0,0,1-.75.25,5.2,5.2,0,0,1-1.11.09H61a1.58,1.58,0,0,1-1.28-.53,3.33,3.33,0,0,1-.56-1.81L59,14.32V13.8l-.52.06-2.08.24-.48.06v.49l.08.77v1.61a2.72,2.72,0,0,1-.3,1.56,1.06,1.06,0,0,1-1,.45,1.93,1.93,0,0,1-.82-.15,1,1,0,0,1-.47-.47,2.34,2.34,0,0,1-.22-.9l-.2-2.94v-.52h-.54l-2.07.26-.49.05v.49l.06.77v.23a1.789,1.789,0,0,1,0,.23v.23a1.48,1.48,0,0,1,0,.21v.23a4.2,4.2,0,0,1,0,.79,1.89,1.89,0,0,1-.57,1.11,2.38,2.38,0,0,1-2.47,0,1.71,1.71,0,0,1-.44-1.18l-.2-2.94v-.52l-.53.06-2.09.25-.48.05v.49l.07.77v1.13a4.2,4.2,0,0,1,0,.79c-.2,1-1,1.45-2.5,1.45H25.55c-1.32,0-2-.89-2-2.68v-11L20.35,6.5v9.9q0,6,5,6h15.4a5.25,5.25,0,0,0,4-1.38,4,4,0,0,0,3.4,1.38A4.48,4.48,0,0,0,51.63,21a3.67,3.67,0,0,0,3.14,1.42,3.77,3.77,0,0,0,3.08-1.31,3.71,3.71,0,0,0,3.2,1.31H63a6.58,6.58,0,0,0,.86-.12,7.59,7.59,0,0,0,.78-.22,4.55,4.55,0,0,0,.72-.3,4.12,4.12,0,0,0,.63-.39c1.32-1,2-2.61,2-4.85a13.52,13.52,0,0,0-.69-4.05Z" fill="#234d69"/></g></svg>